<svg width="36" height="38" viewBox="0 0 36 38" fill="none" xmlns="http://www.w3.org/2000/svg">
<g clip-path="url(#clip0)">
<path d="M7.38048 24.6924C8.47953 27.1179 10.8325 28.1736 12.0004 28.1736C12.7683 28.1736 14.0486 27.7168 15.1479 26.7147C14.7459 26.7428 14.3163 26.757 13.8573 26.757C13.7495 26.757 13.6365 26.756 13.5158 26.7541C13.2843 26.9323 12.9977 27.0328 12.7002 27.0328H11.722C10.9849 27.0328 10.3852 26.4332 10.3852 25.696C10.3852 24.9589 10.9849 24.3592 11.722 24.3592H12.7002C13.0536 24.3592 13.384 24.4969 13.6292 24.7345C13.7106 24.7354 13.7909 24.7358 13.8697 24.7358C15.1324 24.7358 15.9645 24.62 16.5089 24.4803C16.4383 24.3085 16.3998 24.1205 16.3998 23.9242V20.5348C16.3998 20.1822 16.5307 19.8442 16.757 19.5831C16.6362 18.6431 16.417 17.9254 16.0899 17.3961C15.4159 16.3052 14.1164 15.7971 12.0004 15.7971C10.245 15.7971 9.03283 16.1615 8.29466 16.9111C7.72244 17.4922 7.39084 18.3213 7.23584 19.5736C7.46721 19.8357 7.60102 20.1771 7.60102 20.5348V23.9242C7.60108 24.2062 7.52002 24.4694 7.38048 24.6924Z" fill="black"/>
<path d="M4.97506 24.7243H6.14845C6.59019 24.7243 6.94858 24.366 6.94858 23.9241V20.5346C6.94858 20.2394 6.78823 19.9821 6.55034 19.8435C6.81236 17.0681 7.88337 15.1448 12.0001 15.1448C14.3641 15.1448 15.8399 15.7513 16.6444 17.0532C17.1124 17.8108 17.3376 18.7894 17.4428 19.8477C17.2087 19.9873 17.0515 20.2422 17.0515 20.5346V23.924C17.0515 24.305 17.3181 24.6232 17.6747 24.7039C17.1575 25.0422 16.0866 25.3877 13.8693 25.3877C13.6897 25.3877 13.5025 25.3854 13.3075 25.3807C13.1934 25.1613 12.9643 25.0111 12.6999 25.0111H11.7218C11.3437 25.0111 11.0371 25.3177 11.0371 25.6958C11.0371 26.074 11.3437 26.3805 11.7218 26.3805H12.6999C12.9284 26.3805 13.1302 26.2682 13.2545 26.0962C13.4605 26.1014 13.6621 26.1047 13.8569 26.1047C16.3563 26.1046 17.9452 25.678 18.5887 24.8316C18.616 24.7956 18.641 24.7597 18.6638 24.7243H19.0252C19.467 24.7243 19.8254 24.366 19.8254 23.9241V20.5346C19.8254 20.0928 19.4671 19.7345 19.0252 19.7345H18.5839C18.4597 18.4559 18.1845 17.3674 17.6183 16.4513C16.5992 14.8018 14.7613 14 12 14C9.2385 14 7.40082 14.8018 6.38165 16.4514C5.81556 17.3675 5.54044 18.4558 5.41621 19.7346H4.975C4.53307 19.7346 4.1748 20.0928 4.1748 20.5347V23.9241C4.1748 24.366 4.53313 24.7243 4.97506 24.7243Z" fill="black"/>
<path d="M21.674 34.6912C21.4079 33.037 20.8602 30.9062 19.7618 30.1491C19.0128 29.6326 16.3978 28.2355 15.2813 27.6389L15.2578 27.6264C15.13 27.5581 14.974 27.5718 14.8601 27.6612C14.2743 28.121 13.6331 28.4308 12.9542 28.5819C12.8342 28.6085 12.7356 28.6939 12.692 28.8088L12.0002 30.6321L11.3084 28.8088C11.2648 28.6938 11.1662 28.6085 11.0462 28.5819C10.3673 28.4308 9.72594 28.121 9.14009 27.6612C9.02623 27.5718 8.87025 27.5581 8.7425 27.6264C7.63837 28.2163 4.9896 29.6428 4.24177 30.1469C2.97675 30.9991 2.42429 34.0819 2.32641 34.6913C2.3167 34.7517 2.32231 34.8135 2.34272 34.8712C2.38797 34.999 3.54832 38.0002 12.0001 38.0002C20.4518 38.0002 21.6123 34.999 21.6576 34.8712C21.6781 34.8135 21.6837 34.7516 21.674 34.6912ZM17.7387 32.7916H14.3912V32.0867H17.7387V32.7916Z" fill="black"/>
</g>
<circle cx="29" cy="7" r="7" fill="#4F0385"/>
<path d="M27.7749 8.71505L26.0599 7.00005L25.4883 7.57172L27.7749 9.85839L32.6749 4.95839L32.1033 4.38672L27.7749 8.71505Z" fill="white"/>
<defs>
<clipPath id="clip0">
<rect width="24" height="24" fill="white" transform="translate(0 14)"/>
</clipPath>
</defs>
</svg>
