<svg width="24" height="24" viewBox="0 0 24 24" fill="none" xmlns="http://www.w3.org/2000/svg">
<path d="M12 7C8.81818 7 6.10091 8.97909 5 11.7727C6.10091 14.5664 8.81818 16.5455 12 16.5455C15.1818 16.5455 17.8991 14.5664 19 11.7727C17.8991 8.97909 15.1818 7 12 7ZM12 14.9545C10.2436 14.9545 8.81818 13.5291 8.81818 11.7727C8.81818 10.0164 10.2436 8.59091 12 8.59091C13.7564 8.59091 15.1818 10.0164 15.1818 11.7727C15.1818 13.5291 13.7564 14.9545 12 14.9545ZM12 9.86364C10.9436 9.86364 10.0909 10.7164 10.0909 11.7727C10.0909 12.8291 10.9436 13.6818 12 13.6818C13.0564 13.6818 13.9091 12.8291 13.9091 11.7727C13.9091 10.7164 13.0564 9.86364 12 9.86364Z" fill="white"/>
</svg>
