<svg width="14" height="13" viewBox="0 0 14 13" fill="none" xmlns="http://www.w3.org/2000/svg">
<path d="M12.3032 0.00634766H2.26185C1.49163 0.00634766 0.892578 0.633929 0.892578 1.37562V11.4169C0.892578 12.1871 1.49163 12.7862 2.26185 12.7862H6.16997V8.45017H4.3728V6.39627H6.16997V4.85584C6.16997 3.0872 7.22545 2.08878 8.82293 2.08878C9.62167 2.08878 10.4204 2.23141 10.4204 2.23141V3.97152H9.53609C8.65177 3.97152 8.3665 4.51352 8.3665 5.08405V6.39627H10.3348L10.021 8.45017H8.3665V12.7862H12.3032C13.0448 12.7862 13.6724 12.1871 13.6724 11.4169V1.37562C13.6724 0.633929 13.0448 0.00634766 12.3032 0.00634766Z" fill="#4F4F4F"/>
</svg>
