<svg width="34" height="38" viewBox="0 0 34 38" fill="none" xmlns="http://www.w3.org/2000/svg">
<circle cx="27" cy="7" r="7" fill="#4F0385"/>
<path d="M25.7749 8.71505L24.0599 7.00005L23.4883 7.57172L25.7749 9.85839L30.6749 4.95839L30.1033 4.38672L25.7749 8.71505Z" fill="white"/>
<g clip-path="url(#clip0)">
<path d="M22.8899 25.2348C22.8983 25.6267 22.5843 25.9534 22.1862 25.9534C21.8051 25.9534 21.492 25.6487 21.4836 25.2657C21.4606 24.2045 21.1761 22.7504 19.9503 21.8508C17.9823 20.406 14.5408 21.0617 12.196 21.7425C12.0676 21.7794 11.9328 21.7794 11.8041 21.7425C9.46018 21.062 6.01807 20.4059 4.04988 21.8508C2.82407 22.7504 2.53953 24.2045 2.51656 25.2657C2.51024 25.5547 2.33103 25.7974 2.08296 25.9C1.60754 26.0945 1.09936 25.738 1.11028 25.2348C1.16086 22.9278 2.19598 20.9488 4.39583 20.0714C5.1916 19.7617 6.18457 19.5598 7.50793 19.5862C7.50324 19.5815 7.54538 19.6356 5.91696 17.4566C4.77576 16.0843 5.75111 14 7.53981 14C7.73575 14 7.92278 14.0816 8.05591 14.2255C8.06201 14.232 8.81999 15.0224 10.1133 15.4264C10.7152 14.4477 11.7272 14.0998 11.7779 14.083C11.9218 14.0347 12.0784 14.0347 12.2223 14.083C12.2729 14.0998 13.2849 14.4477 13.8868 15.4264C15.1801 15.0224 15.9381 14.232 15.9466 14.2231C16.0797 14.0792 16.2644 14 16.4603 14C18.2523 14 19.2223 16.0868 18.0832 17.4566C17.1275 18.7355 17.8294 17.7961 16.4931 19.5853C16.4831 19.5954 17.883 19.5034 19.2434 19.9425C21.642 20.7144 22.8355 22.7528 22.8899 25.2348Z" fill="black"/>
<path d="M20.8346 27.2459C20.8244 27.2313 20.9515 27.4065 17.3287 22.4181C16.1944 22.3245 14.9396 22.5142 13.8397 22.7664C13.9686 22.9338 14.1196 23.0884 14.2968 23.2211C14.6076 23.4541 14.6704 23.8947 14.4374 24.2055C14.2034 24.5172 13.7633 24.5783 13.453 24.3461C12.995 24.0025 12.6547 23.5783 12.4025 23.1377C12.1359 23.1895 11.8643 23.1896 11.5972 23.1377C11.345 23.5783 11.0047 24.0025 10.5467 24.3461C10.2369 24.5779 9.79661 24.5177 9.56228 24.2055C9.3293 23.8947 9.39212 23.4541 9.7029 23.2211C9.8801 23.0884 10.031 22.9338 10.1595 22.7664C9.04748 22.5114 7.79838 22.3251 6.67096 22.4181C3.05175 27.4017 3.17527 27.2314 3.1651 27.2459C0.939934 30.4826 2.16579 34.9451 5.71984 36.5733C9.77242 38.43 14.0288 38.5209 18.2798 36.5733C21.8361 34.9441 23.0581 30.4802 20.8346 27.2459ZM12.7039 32.9854V33.1256C12.7039 33.5333 12.3795 33.8357 12.0008 33.8357C11.6124 33.8357 11.2976 33.5209 11.2976 33.1326V33.0649C10.9734 33.0082 10.6774 32.887 10.3036 32.6423C9.97047 32.4242 9.89219 31.9801 10.1003 31.6621C10.3129 31.3371 10.7486 31.246 11.0737 31.4586C11.4164 31.6828 11.5262 31.7004 11.9961 31.6971C12.4483 31.6941 12.6286 31.339 12.6638 31.1297C12.706 30.8788 12.5984 30.6771 12.3114 30.5756C11.7763 30.3862 11.146 30.1458 10.7049 29.7999C9.7382 29.042 10.0303 27.3058 11.2977 26.8452V26.7504C11.2977 26.3427 11.6221 26.0402 12.0008 26.0402C12.3891 26.0402 12.704 26.3551 12.704 26.7434V26.8027C13.0626 26.907 13.3389 27.0827 13.4965 27.2281C13.4914 27.2337 13.4909 27.2315 13.4956 27.2356C13.7793 27.4983 13.798 27.9411 13.5365 28.2265C13.2746 28.5123 12.8311 28.5321 12.5448 28.2714C12.3634 28.137 12.0868 28.079 11.7956 28.1673C11.6292 28.2174 11.539 28.3956 11.538 28.5552C11.5389 28.6285 11.5599 28.6763 11.5728 28.6864C11.8381 28.8944 12.332 29.0845 12.7802 29.2429C14.6224 29.8941 14.4181 32.3659 12.7039 32.9854Z" fill="black"/>
</g>
<defs>
<clipPath id="clip0">
<rect width="24" height="24" fill="white" transform="translate(0 14)"/>
</clipPath>
</defs>
</svg>
