<svg width="31" height="42" viewBox="0 0 31 42" fill="none" xmlns="http://www.w3.org/2000/svg">
<path d="M21.41 29.41L12.58 20.58C12.21 20.21 11.7 20 11.17 20H4C2.9 20 2 20.9 2 22V29.17C2 29.7 2.21 30.21 2.59 30.58L11.42 39.41C12.2 40.19 13.47 40.19 14.25 39.41L21.42 32.24C22.2 31.46 22.2 30.2 21.41 29.41ZM6.5 26C5.67 26 5 25.33 5 24.5C5 23.67 5.67 23 6.5 23C7.33 23 8 23.67 8 24.5C8 25.33 7.33 26 6.5 26Z" fill="black"/>
<circle cx="24" cy="7" r="7" fill="#4F0385"/>
<path d="M22.7749 8.71505L21.0599 7.00005L20.4883 7.57172L22.7749 9.85839L27.6749 4.95839L27.1033 4.38672L22.7749 8.71505Z" fill="white"/>
</svg>
