<svg width="24" height="24" viewBox="0 0 24 24" fill="none" xmlns="http://www.w3.org/2000/svg">
<path d="M8.2 16.2C7.43 16.2 6.807 16.83 6.807 17.6C6.807 18.37 7.43 19 8.2 19C8.97 19 9.6 18.37 9.6 17.6C9.6 16.83 8.97 16.2 8.2 16.2ZM4 5V6.4H5.4L7.92 11.713L6.975 13.428C6.863 13.624 6.8 13.855 6.8 14.1C6.8 14.87 7.43 15.5 8.2 15.5H16.6V14.1H8.494C8.396 14.1 8.319 14.023 8.319 13.925L8.34 13.841L8.97 12.7H14.185C14.71 12.7 15.172 12.413 15.41 11.979L17.916 7.436C17.972 7.338 18 7.219 18 7.1C18 6.715 17.685 6.4 17.3 6.4H6.947L6.289 5H4ZM15.2 16.2C14.43 16.2 13.807 16.83 13.807 17.6C13.807 18.37 14.43 19 15.2 19C15.97 19 16.6 18.37 16.6 17.6C16.6 16.83 15.97 16.2 15.2 16.2Z" fill="black"/>
</svg>
