<svg width="15" height="12" viewBox="0 0 15 12" fill="none" xmlns="http://www.w3.org/2000/svg">
<path d="M13.0936 3.01342C13.6642 2.58552 14.1776 2.07205 14.577 1.47299C14.0635 1.7012 13.4645 1.87236 12.8654 1.92941C13.493 1.55857 13.9494 0.988041 14.1776 0.27488C13.6071 0.617197 12.951 0.873935 12.2949 1.01657C11.7244 0.417512 10.9541 0.0751953 10.0984 0.0751953C8.44382 0.0751953 7.10308 1.41594 7.10308 3.07047C7.10308 3.29868 7.13161 3.52689 7.18866 3.7551C4.70686 3.61247 2.4818 2.41436 0.998425 0.617197C0.741687 1.04509 0.599055 1.55857 0.599055 2.1291C0.599055 3.15605 1.11253 4.0689 1.9398 4.6109C1.45485 4.58237 0.969899 4.46827 0.570529 4.24005V4.26858C0.570529 5.72343 1.59748 6.92154 2.96675 7.2068C2.73854 7.26385 2.45327 7.32091 2.19653 7.32091C1.99685 7.32091 1.82569 7.29238 1.62601 7.26385C1.99685 8.46197 3.10938 9.31776 4.4216 9.34628C3.39464 10.145 2.11096 10.63 0.713161 10.63C0.456423 10.63 0.228211 10.6014 0 10.5729C1.31222 11.4287 2.88117 11.9137 4.59275 11.9137C10.0984 11.9137 13.0936 7.37796 13.0936 3.41279C13.0936 3.27016 13.0936 3.15605 13.0936 3.01342Z" fill="#4F4F4F"/>
</svg>
