<svg width="14" height="13" viewBox="0 0 14 13" fill="none" xmlns="http://www.w3.org/2000/svg">
<path fill-rule="evenodd" clip-rule="evenodd" d="M6.95368 0.00634766C8.66527 0.00634766 10.2627 0.690982 11.4323 1.88909C12.6304 3.0872 13.3721 4.65616 13.3721 6.36774C13.3721 9.84797 10.4624 12.7006 6.95368 12.7006C5.8982 12.7006 4.87125 12.4153 3.92988 11.9304L0.592285 12.7862L1.4766 9.50565C0.934602 8.56428 0.620812 7.48027 0.620812 6.33922C0.620812 2.85899 3.47345 0.00634766 6.95368 0.00634766ZM9.86337 7.67994C9.69222 7.59436 8.922 7.22351 8.77937 7.16646C8.63674 7.10941 8.52263 7.08088 8.40853 7.25204C8.35043 7.34887 8.18717 7.55086 8.06152 7.70631C8.00208 7.77985 7.95106 7.84298 7.92358 7.87962C7.80947 7.9652 7.72389 7.99373 7.58126 7.90815C6.63989 7.45173 6.04083 7.08088 5.41325 6.0254C5.31921 5.86867 5.38018 5.80666 5.50152 5.68325C5.60103 5.58204 5.74114 5.43953 5.86967 5.16961C5.92673 5.05551 5.8982 4.96993 5.86967 4.88435C5.85861 4.85116 5.80035 4.71498 5.7265 4.5424C5.60995 4.26998 5.45458 3.90685 5.38473 3.71476C5.25305 3.42507 5.14568 3.42714 5.04019 3.42916C5.03141 3.42933 5.02265 3.4295 5.01388 3.4295H4.72862C4.61451 3.4295 4.44335 3.45802 4.30072 3.62918C4.28681 3.64587 4.27046 3.66446 4.25228 3.68514C4.084 3.87647 3.75872 4.24629 3.75872 4.9414C3.75872 5.74014 4.30072 6.48183 4.3863 6.59593C4.39699 6.60662 4.42237 6.6409 4.46172 6.69405C4.73735 7.06637 5.69838 8.36451 7.09631 8.96363C8.09474 9.42005 8.49411 9.44858 9.00758 9.363C9.29285 9.33447 9.92043 8.99215 10.0631 8.62131C10.2057 8.25047 10.2057 7.93668 10.1486 7.87962C10.1286 7.81939 10.0661 7.78742 9.98114 7.74394C9.94538 7.72563 9.90563 7.70529 9.86337 7.67994Z" fill="#4F4F4F"/>
</svg>
